<?xml version="1.0" standalone="no"?><!DOCTYPE svg PUBLIC "-//W3C//DTD SVG 1.1//EN" "http://www.w3.org/Graphics/SVG/1.1/DTD/svg11.dtd"><svg class="icon" width="200px" height="200.00px" viewBox="0 0 1024 1024" version="1.1" xmlns="http://www.w3.org/2000/svg"><path d="M511.3 95.1c230.3 0 417 186.7 417 417s-186.7 417-417 417-417-186.7-417-417c0-230.4 186.7-417 417-417z" fill="#FF556E" /><path d="M928.3 512c0-230.3-186.7-417-417-417s-417 186.7-417 417 186.7 417 417 417 417-186.7 417-417zM498.7 881.9C287.3 881.9 116 710.5 116 499.1s171.4-382.8 382.8-382.8 382.8 171.4 382.8 382.8-171.5 382.8-382.9 382.8z" fill="#FF556E" /><path d="M498.7 116.4C287.3 116.4 116 287.7 116 499.1s171.4 382.8 382.8 382.8 382.8-171.4 382.8-382.8-171.5-382.7-382.9-382.7z m-16.3 695.1c-182.4 0-330.3-147.9-330.3-330.3S300 150.8 482.4 150.8s330.3 147.9 330.3 330.3-147.8 330.4-330.3 330.4z" fill="#FF5F71" /><path d="M482.4 150.8c-182.4 0-330.3 147.9-330.3 330.3S300 811.5 482.4 811.5s330.3-147.9 330.3-330.3-147.8-330.4-330.3-330.4zM466.1 741c-153.5 0-277.9-124.4-277.9-277.9s124.4-277.9 277.9-277.9S744 309.7 744 463.1 619.6 741 466.1 741z" fill="#FF6974" /><path d="M466.1 185.3c-153.5 0-277.9 124.4-277.9 277.9S312.7 741 466.1 741 744 616.6 744 463.1 619.6 185.3 466.1 185.3z m-16.3 485.3c-124.5 0-225.4-100.9-225.4-225.4s100.9-225.4 225.4-225.4 225.4 100.9 225.4 225.4-100.9 225.4-225.4 225.4z" fill="#FF7377" /><path d="M449.8 219.7c-124.5 0-225.4 100.9-225.4 225.4s100.9 225.4 225.4 225.4 225.4-100.9 225.4-225.4-100.9-225.4-225.4-225.4z m-16.2 380.4c-95.5 0-173-77.4-173-173s77.4-173 173-173 173 77.4 173 173-77.5 173-173 173z" fill="#FF7E7A" /><path d="M433.6 254.2c-95.5 0-173 77.4-173 173s77.4 173 173 173 173-77.4 173-173-77.5-173-173-173z m-16.3 275.5c-66.6 0-120.5-54-120.5-120.5s54-120.5 120.5-120.5 120.5 54 120.5 120.5-54 120.5-120.5 120.5z" fill="#FF887D" /><path d="M417.3 409.2m-120.5 0a120.5 120.5 0 1 0 241 0 120.5 120.5 0 1 0-241 0Z" fill="#FF9280" /><path d="M511.3 113.1c53.9 0 106.1 10.5 155.3 31.3 47.5 20.1 90.2 48.9 126.8 85.5 36.7 36.6 65.4 79.3 85.5 126.8 20.8 49.2 31.3 101.4 31.3 155.3S899.8 618.2 879 667.4c-20.1 47.5-48.9 90.2-85.5 126.8s-79.3 65.4-126.8 85.5C617.5 900.5 565.2 911 511.3 911S405.2 900.5 356 879.7c-47.5-20.1-90.2-48.9-126.8-85.5s-65.4-79.3-85.5-126.8c-20.8-49.2-31.3-101.4-31.3-155.3s10.5-106.1 31.3-155.3c20.1-47.5 48.9-90.2 85.5-126.8s79.3-65.4 126.8-85.5c49.2-20.9 101.5-31.4 155.3-31.4m0-18c-230.3 0-417 186.7-417 417s186.7 417 417 417 417-186.7 417-417c0-230.4-186.7-417-417-417z" fill="#EF4868" /><path d="M363.6 444.7c33.6 0 60.8-31.1 60.8-69.5s-27.2-69.5-60.8-69.5-60.8 31.1-60.8 69.5 27.3 69.5 60.8 69.5z m295.4 0c33.6 0 60.8-31.1 60.8-69.5s-27.2-69.5-60.8-69.5-60.8 31.1-60.8 69.5 27.2 69.5 60.8 69.5z m26.4 86.9H337.3c-21.7 0-37.9 19.5-33.8 40.4 19.1 95.8 104.9 168.1 207.8 168.1S700 667.8 719.1 572c4.3-20.9-12-40.4-33.7-40.4z" fill="#FFC7C7" /><path d="M219.4 321.1c-3.6 0-7.2-1.1-10.3-3.3-8.1-5.7-10.1-16.9-4.4-25.1 42.7-61 94.3-94 96.5-95.4 8.4-5.3 19.5-2.8 24.8 5.6 5.3 8.4 2.8 19.5-5.6 24.8-0.7 0.4-47.9 30.9-86.2 85.6-3.5 5.1-9.1 7.8-14.8 7.8zM181.6 381.5c-3 0-6-0.7-8.8-2.3-8.7-4.8-11.8-15.8-6.9-24.5l5.5-9.8c4.8-8.7 15.8-11.8 24.5-6.9s11.8 15.8 6.9 24.5l-5.5 9.8c-3.3 5.9-9.4 9.2-15.7 9.2z" fill="#FFFFFF" /></svg>